<svg xmlns="http://www.w3.org/2000/svg" width="136" height="40" viewBox="0 0 136 40">
    <g fill="none" fill-rule="evenodd">
        <g fill="#D80C18">
            <path d="M21.751 14.8L5.967 31.756c-.102.11-.286.025-.267-.125l1.76-14.363H.156c-.136 0-.207-.162-.114-.262L15.826.05c.103-.11.286-.025.268.125l-1.76 14.363h7.303c.136 0 .207.162.114.262M79.4 2.555V29.65h-4.03V16.132h-2.6v13.004H68.8V2.705h3.971v9.324h2.6V2.555h4.03zM94.7 18.458c.757 0 1.493.005 2.21.015.714.012 1.344.036 1.89.075 2.257.138 4.007.65 5.246 1.533 1.24.882 1.86 2.207 1.86 3.973s-.62 3.086-1.86 3.96c-1.24.872-2.99 1.388-5.247 1.548-.525.039-1.145.063-1.86.073-.717.01-1.458.014-2.223.014-.767 0-1.508-.005-2.224-.014-.715-.01-1.335-.034-1.86-.073-2.258-.16-4.007-.676-5.248-1.548-1.24-.874-1.86-2.194-1.86-3.96s.62-3.084 1.86-3.958c1.241-.872 2.99-1.388 5.248-1.548.525-.02 1.145-.039 1.86-.06.716-.02 1.452-.03 2.208-.03zM133 2.555V29.65h-4.123V16.343h-4.123v-3.921h4.123V2.555H133zm-98.155 17.67v5.185h16.873v3.65H30.513v-8.835h4.332zm32.187-17.08c-.244 2.728-.656 5.268-1.237 7.619-.58 2.35-1.267 4.545-2.061 6.58-.795 2.039-1.67 3.925-2.627 5.667-.958 1.74-1.934 3.363-2.932 4.871l-3.512-2.17c.956-1.361 1.853-2.803 2.688-4.319.834-1.518 1.583-3.079 2.244-4.69.661-1.607 1.232-3.235 1.71-4.885.479-1.648.84-3.278 1.085-4.886h-6.963V3.144zm57.161 0v3.734h-9.348v5.841h8.693v3.615h-8.693v7.074l12.265-.48v3.553l-16.492.811V3.144h13.575zM94.715 21.97c-.686 0-1.356.01-2.012.029-.655.022-1.235.05-1.74.09-1.027.099-1.768.317-2.222.656-.454.336-.68.773-.68 1.308 0 .538.226.973.68 1.31.454.337 1.195.555 2.222.654.505.041 1.085.07 1.74.09.656.02 1.326.029 2.012.029.685 0 1.355-.01 2.011-.029.655-.02 1.234-.049 1.739-.09 1.029-.1 1.77-.317 2.224-.654.453-.337.68-.772.68-1.31 0-.535-.227-.972-.68-1.308-.454-.34-1.195-.557-2.224-.657-.505-.038-1.084-.067-1.739-.09-.656-.019-1.326-.028-2.011-.028zM51.718 2.555v19.437h-4.259v-9.598h-3.958v5.813H28.746V2.856h4.259v4.15h6.238v-4.15H43.5v5.603h3.958V2.555h4.259zm46.634.59v3.72h-4.944c-.366.683-.773 1.383-1.231 2.105-.074.118-.16.234-.235.35l7.485 4.898-2.358 3.262-7.232-5.205c-.037.048-.07.096-.107.143-.895 1.137-1.84 2.232-2.834 3.28-.995 1.047-1.98 1.966-2.953 2.76l-2.775-2.807c.776-.611 1.551-1.306 2.327-2.09.776-.782 1.526-1.607 2.252-2.47.726-.864 1.402-1.758 2.03-2.684.348-.516.665-1.03.96-1.542H82.6v-3.72h15.752zm6.418-.59V8.1h2.903v3.96h-2.903v6.4h-4.165V2.554h4.165zm-65.527 8.023h-6.238v3.997h6.238v-3.997z" transform="translate(0.000000, 4.000000)"/>
        </g>
    </g>
</svg>
