<svg width="100" height="100" viewBox="0 0 100 100" xmlns="http://www.w3.org/2000/svg">
    <g fill="none" fill-rule="evenodd">
        <circle fill="#FAFAFA" cx="50" cy="50" r="50"/>
        <path d="M36.216 41.683c.248-1.931.498-3.862.75-5.794h6.79l-.283 5.537c0 .017.007.034.007.051-.002.01-.002.02-.002.03-.098 1.876-1.897 3.392-4.035 3.392-1.066 0-2.018-.39-2.615-1.072-.51-.585-.722-1.325-.612-2.144zm8.888 4.078c1.224 1.289 3.009 2.028 4.89 2.028 1.89 0 3.674-.74 4.9-2.033.107-.112.207-.228.304-.345 1.28 1.447 3.217 2.378 5.35 2.378.112 0 .216-.027.328-.032V63.6H39.115V47.757c.112.005.215.032.328.032 2.133 0 4.071-.931 5.351-2.38.099.121.2.238.31.352zm1.545-9.872h6.698l.282 5.619c0 .015-.007.027-.007.04l.004.086a2.939 2.939 0 0 1-.826 2.132c-1.367 1.44-4.233 1.441-5.604.003a2.95 2.95 0 0 1-.83-2.142l.004-.078c0-.016-.008-.03-.008-.048l.287-5.612zm16.376 0c.252 1.933.502 3.865.753 5.804.109.81-.104 1.547-.614 2.132-.596.683-1.55 1.074-2.616 1.074-2.137 0-3.932-1.514-4.034-3.388a.359.359 0 0 0-.003-.044c0-.015.006-.027.006-.04l-.278-5.538h6.786zM36.226 46.946v18.098c0 .798.646 1.445 1.444 1.445h24.65c.799 0 1.445-.647 1.445-1.445V46.946c.59-.328 1.137-.719 1.575-1.22 1.061-1.214 1.522-2.785 1.301-4.41-.3-2.355-.607-4.707-.918-7.06a1.443 1.443 0 0 0-1.431-1.257H35.699c-.724 0-1.338.538-1.431 1.257-.311 2.354-.617 4.707-.916 7.05-.221 1.637.24 3.208 1.3 4.421.439.502.984.893 1.574 1.22z" fill="#CCC"/>
    </g>
</svg>
