<svg xmlns="http://www.w3.org/2000/svg" width="35" height="16" viewBox="0 0 35 16">
    <g fill="none" fill-rule="evenodd">
        <g>
            <g transform="translate(-958.000000, -846.000000) translate(958.000000, 846.000000)">
                <rect width="35" height="16" fill="#D80C18" rx="2"/>
                <path fill="#FFF" d="M9.226 3.003l-.56 4.563h2.325c.043 0 .066.052.036.083l-5.024 5.388c-.033.035-.091.008-.085-.04l.56-4.563H4.153c-.043 0-.066-.052-.036-.083L9.14 2.963c.033-.035.091-.008.085.04zm11.803.706v8.59h-1.306V3.71h1.306zm8.447 0v8.59h-1.345V3.71h1.345zm-10.265.048v8.38h-1.288V8.138h-.776V6.875h.776V3.757h1.288zm5.398-.02c.353 0 .677.05.97.149.294.099.548.25.763.455.214.203.385.458.511.765.126.306.199.663.218 1.071.012.274.022.537.028.79.006.251.01.5.01.745 0 .246-.004.493-.01.742s-.016.507-.028.775c-.02.414-.092.773-.218 1.076-.126.303-.297.557-.511.76-.215.204-.47.356-.762.455-.294.099-.618.148-.971.148-.714 0-1.291-.2-1.733-.602-.442-.402-.685-1.015-.73-1.837l-.033-.785c-.01-.248-.014-.496-.014-.74 0-.246.005-.494.014-.743.01-.248.021-.51.034-.784.044-.823.287-1.435.729-1.836.442-.403 1.02-.604 1.733-.604zm-7.084.182v1.187h-.531l-.016 5.075.614-.024v1.167l-4.47.192v-1.187l.624-.024-.017-5.2h-.531V3.92h4.327zm7.084 1.005c-.165 0-.312.027-.44.081-.13.054-.242.144-.337.268-.095.124-.17.288-.227.492-.057.205-.095.46-.114.766-.025.376-.038.767-.038 1.172 0 .405.013.796.038 1.172.02.306.057.561.114.765.057.204.132.368.227.493.095.124.207.213.336.268.13.054.276.08.44.08.165 0 .312-.026.44-.08.13-.055.243-.144.337-.268.095-.125.17-.289.228-.493.056-.204.094-.46.113-.765.025-.376.038-.766.038-1.167 0-.402-.013-.794-.038-1.177-.019-.306-.057-.561-.113-.766-.057-.204-.133-.368-.228-.492-.094-.124-.207-.214-.336-.268-.13-.054-.276-.081-.44-.081zm-8.894.182h-.707l.016 5.15.675-.026.016-5.124z"/>
            </g>
        </g>
    </g>
</svg>
